<?xml version="1.0" encoding="utf-8"?>
<!-- Generator: Adobe Illustrator 25.0.1, SVG Export Plug-In . SVG Version: 6.00 Build 0)  -->
<svg version="1.1" id="Layer_1" xmlns="http://www.w3.org/2000/svg" xmlns:xlink="http://www.w3.org/1999/xlink" x="0px" y="0px"
	 viewBox="0 0 2485.1 844.2" style="enable-background:new 0 0 2485.1 844.2;" xml:space="preserve">
<style type="text/css">
	.st0{fill:#FFFFFF;}
</style>
<g>
	<path class="st0" d="M61.2,305c0.6-2.4,1.4-4.7,1.7-7.2c4.1-42.9,18.2-82.2,42.7-117.5c37.2-53.7,87.7-88.3,151.3-103.6
		c26.3-6.3,52.9-7.7,79.8-5.3c53.8,4.9,101.2,25,141.9,60.4c43.1,37.5,70.2,84.7,81.7,140.6c5.1,24.7,6.2,49.7,3.5,74.8
		c-6,55.1-27.7,103.3-65.2,144.1c-31.9,34.8-70.7,58.6-116,71.8c-27.8,8-56.1,11.1-85,9.2c-55.1-3.6-103.9-23.1-146-58.6
		c-44.9-37.9-73.2-85.8-84.7-143.4c-1.8-9-2.6-18.2-3.9-27.2c-0.4-2.7-1.1-5.4-1.7-8.2C61.2,324.9,61.2,314.9,61.2,305z
		 M238.3,501.8c6,0,11.4,0,16.9,0c12.1,0,24.3,0,36.4,0c8.9,0,13.6-3.7,15.5-12.4c0.6-2.6,0.8-5.2,0.8-7.9c0.1-9.3,0-18.7,0-28
		c0-6.5-0.1-13.1,0.1-19.6c0.4-11,6.2-19.2,15.6-22.1c3.1-0.9,6.4-1.3,9.6-1.3c18.2-0.1,36.4-0.1,54.7-0.1c1.7,0,3.4,0,4.9,0
		c6.6-13.8,15.8-19.2,27.6-16.7c10.3,2.2,17.7,11.5,17.7,22.3c0,10.4-7.4,19.7-17.5,22c-11.7,2.7-21.1-2.8-27.7-16.5
		c-1.3,0-2.9,0-4.4,0c-13.7,0-27.4,0-41.1,0c-5.1,0-10.3-0.1-15.4,0c-7.1,0.1-11.4,3.6-12.6,10.6c-0.3,1.8-0.3,3.7-0.3,5.6
		c0,14.6,0.1,29.3-0.1,43.9c0,3.8-0.5,7.8-1.5,11.5c-3.5,13.2-12.6,19.8-26.3,19.8c-39.4-0.1-78.8,0-118.2,0c-0.9,0-1.9,0.3-3.2,0.5
		c66.3,51.1,154.7,58.9,219.1,35.4c0-13,0-26,0-39c-13.4-6.1-19-15.1-16.6-26.9c2.1-10.3,11.3-17.9,22-18.2
		c10.5-0.2,19.9,7.1,22.5,17.6c2.8,11.5-2.7,20.9-16.2,27.4c0,11.5,0,23.1,0,35.1c1.5-0.5,2.7-0.8,3.8-1.3
		c34.2-14.1,63.7-35,88.5-62.5c1.8-2,2.1-3.9,2.1-6.3c0-46.4-0.1-92.7,0.1-139.1c0-5.3-1.4-9.1-8.5-11c-3.7-1-7.7-1.2-11.6-1.2
		c-27.7-0.1-55.4,0-83.2-0.1c-2.3,0-4.7-0.1-7-0.4c-13.1-1.9-20.4-10.3-20.5-23.6c0-1.1,0-2.2,0-3.3c0-7,0-14,0-20.8
		c-13.9-7-19.4-16.2-16.7-27.6c2.4-10.3,11.4-17.6,21.9-17.7c10.6-0.1,20,6.9,22.5,16.9c3,12.1-1.9,20.8-16.5,28.4
		c0,7.7-0.1,15.6,0,23.6c0.1,8.4,4.1,12.6,12.4,13.2c1.4,0.1,2.8,0,4.2,0c27.1,0,54.2,0,81.3,0c2.6,0,5.3,0,7.9,0.1
		c16.8,1,24.8,9.4,24.8,26.1c0,40,0,80,0,120c0,1.6,0.1,3.2,0.3,5.9c23.2-31.6,37.8-65.5,44.1-102.9c5.6-33.1,4.4-65.9-3.9-98.7
		c-2.1,0-3.8,0-5.5,0c-28.8,0-57.6,0-86.4,0.1c-4.4,0-8.7-0.7-12.7-2.6c-9-4.3-12.8-11.8-12.8-21.5c-0.1-16.2-0.1-32.4-0.1-48.5
		c0-1.8,0-3.7,0-5.3c-13.5-6.4-19.2-15.5-17.1-26.6c2-10.3,10.7-18.1,21.1-18.7c10.3-0.6,19.8,5.8,23,15.6c1.6,4.9,1.7,9.8-0.1,14.6
		c-2.7,7.6-8.4,12.1-15.6,14.7c0,18.9-0.1,37.4,0.1,55.9c0.1,6.4,4.1,10.1,10.6,11c1.5,0.2,3.1,0.2,4.7,0.2c27.7,0,55.4,0,83.2,0
		c1.3,0,2.7-0.1,4.5-0.3c-14.7-46.8-40.6-85.5-78.2-116.4c-24.2-19.8-71-43.7-85.3-43.6c0,1.7,0,3.4,0,5.1c0,22.1,0,44.2,0,66.3
		c0,5.8-0.9,11.5-3.1,16.9c-3.7,9-10.1,15.3-19.8,17.5c-3.5,0.8-7.1,1-10.7,1c-16.7,0.1-33.3,0.2-50,0c-6.3-0.1-10.3,2.9-12.7,8.3
		c-0.9,2.1-1.8,4.4-2,6.7c-0.5,6-0.8,12.1-0.8,18.1c-0.1,32.4,0,64.7,0,97.1c0,1.8,0,3.6,0,5.2c13.5,6.6,19.1,16.1,16.5,27.5
		c-2.3,10-11.2,17.3-21.5,17.6c-10.8,0.2-19.9-6.3-22.7-16.6c-1.3-4.9-1.2-9.9,0.8-14.6c2.9-7.1,8.5-11.3,15.7-13.7
		c0-9.1,0-18,0-26.8c0-27.7-0.1-55.4-0.1-83.1c0-7.2,0.6-14.3,3.5-21c3.2-7.5,8.3-13.1,16.6-15.1c2.2-0.5,4.6-0.6,6.9-0.6
		c17.3-0.1,34.6,0,51.9,0c10.6,0,16.9-5.1,19.3-15.4c0.6-2.4,0.9-4.9,1-7.4c0.1-10.9,0.1-21.8,0-32.7c0-1-0.3-2-0.5-3.1
		c-26.1,0-52,0-77.7,0c-7.5,14.2-16.5,19.3-28.4,16.4c-9.8-2.4-16.9-11.6-17-22c-0.1-10.5,7-19.6,17.3-22.1
		c11.5-2.9,20.1,2.1,27.9,16.2c26,0,51.9,0,77.8,0c0.9-5.5,0.7-26-0.3-29.5c-54.8-12-107.8-6.6-158.6,17.5c0,25.5,0,50.4,0,75.3
		c14,7.4,19.1,16,16.4,27.5c-2.3,10.1-11,17.3-21.4,17.7c-10.2,0.4-19.4-6.1-22.5-15.7c-1.6-4.9-1.6-9.8,0.1-14.7
		c2.8-7.5,8.4-12.1,15.6-14.4c0-23.4,0-46.1,0-69.4c-1.8,1-3.2,1.6-4.5,2.4c-13,7.5-25.1,16.2-36.5,25.9c-2.5,2.1-3.4,4.3-3.4,7.6
		c0.1,31.4,0.1,62.9,0,94.3c0,2.6-0.1,5.3-0.5,7.9c-1.7,12-9.4,20-21.3,22.1c-2.1,0.4-4.3,0.5-6.5,0.6c-5.2,0.3-7.5,2.6-8.2,8.1
		c13.4,6.8,18.6,16.2,15.7,27.7c-2.7,10.5-12.1,17.6-22.7,17.2c-11-0.4-19.7-7.9-21.8-18.9c-2.2-11.3,3.8-20.7,16.9-26.3
		c0.4-1.7,0.8-3.5,1.4-5.3c2.7-8,8.3-12.5,16.7-13.6c1.5-0.2,3.1-0.1,4.7-0.2c8.2-0.7,13.1-5.3,14.3-13.4c0.2-1.4,0.3-2.8,0.3-4.2
		c0-28.6,0-57.3,0-85.9c0-1-0.3-2-0.5-3.7c-33.6,35-55.3,75.5-64.3,122.4c-8.8,45.9-4.3,90.6,12.8,134.1c1.3,0.1,2.2,0.2,3.2,0.2
		c21,0,42.1,0.2,63.1,0c4.9,0,10-0.8,14.7-2c8.1-2.1,10-5,10-13.3c0-30.3,0-60.7,0-91c0-1.7,0-3.4,0-4.8
		c-13.4-6.3-19.2-15.7-16.8-26.8c2.3-10.6,11.1-18,21.9-18.3c10.3-0.3,19.7,6.6,22.5,16.3c1.5,5.1,1.2,10.2-0.9,15.1
		c-2.9,6.9-8.3,11.1-15.5,13.4c0,2.1,0,4,0,5.8c0,29.9,0,59.8,0,89.6c0,1.9,0,3.7-0.1,5.6c-0.3,6-3,10.8-7.9,14.2
		c-2.8,1.9-5.9,3.5-9.1,4.6c-6.5,2.2-13.3,2.9-20.2,2.8c-18.5-0.1-37.1-0.1-55.6-0.1c-1.2,0-2.3,0.2-3.9,0.3
		c0.5,1.4,0.9,2.4,1.3,3.3c13.7,28.6,32.4,53.4,55.9,74.6c2,1.8,4,2,6.4,2c20.9,0,41.7,0,62.6,0c1.5,0,3-0.1,4.8-0.2
		c0-11.8,0-23.4,0-34.9c-13.3-6.4-19-15.9-16.4-27.2c2.4-10.2,11.4-17.6,21.8-17.9c10.4-0.2,20,7,22.5,16.9
		c3.1,12-1.9,20.8-16.3,28.3C238.3,478.3,238.3,489.8,238.3,501.8z M232.4,432.9c-6.4,0-11.5,5.1-11.5,11.5
		c0,6.5,5.1,11.6,11.4,11.7c6.2,0.1,11.7-5.1,11.8-11.4C244.3,438.2,239,432.8,232.4,432.9z M422.9,162.2
		c-0.1,6.4,4.9,11.7,11.2,11.9c6.3,0.2,12-5.3,12.1-11.6c0-6.2-5.3-11.5-11.5-11.6C428.3,150.8,423,155.9,422.9,162.2z M369.8,264.7
		c6.2,0.1,11.6-5.1,11.8-11.3c0.2-6.2-4.9-11.6-11.2-11.8c-6.6-0.2-12,4.9-12,11.5C358.4,259.3,363.5,264.6,369.8,264.7z
		 M394.7,499.2c6.4,0,11.6-5.2,11.5-11.6c-0.1-6.4-5.3-11.6-11.6-11.5c-6.3,0.1-11.7,5.5-11.6,11.7
		C383.1,494.2,388.3,499.3,394.7,499.2z M122,302.6c0.1-6.4-5-11.6-11.4-11.7c-6.4-0.1-11.7,5-11.8,11.3
		c-0.1,6.3,5.2,11.7,11.5,11.8C116.5,314.1,121.9,308.9,122,302.6z M203.6,214.5c6.4,0,11.8-5.3,11.7-11.5c0-6.3-5.3-11.6-11.6-11.7
		c-6.4,0-11.7,5.2-11.6,11.5C192.1,209.3,197.2,214.4,203.6,214.5z M187,265.4c-6.5-0.1-11.7,5-11.7,11.3c0,6.5,5,11.6,11.5,11.6
		c6.4,0.1,11.8-5.2,11.8-11.4C198.5,270.7,193.4,265.5,187,265.4z M415.2,427.5c6.6,0.1,11.7-4.8,11.8-11.3
		c0.1-6.5-4.8-11.6-11.3-11.7c-6.5-0.1-11.7,4.8-11.8,11.2C403.8,422.4,408.7,427.4,415.2,427.5z M286.7,356.1
		c-0.1-6.5-5-11.6-11.4-11.7c-6.3-0.1-11.7,5.1-11.7,11.4c0,6.6,5.2,11.9,11.7,11.8C281.7,367.6,286.8,362.5,286.7,356.1z
		 M268.2,111.4c-6.4-0.1-11.6,5.1-11.7,11.5c-0.1,6.4,5,11.6,11.5,11.7c6.3,0.1,11.7-5.2,11.8-11.5
		C279.8,116.8,274.5,111.4,268.2,111.4z"/>
	<path class="st0" d="M442.5,757.8c-2.6-0.6-5.1-1.3-7.7-1.8c-12.8-2.6-24.3-7.6-33.5-17.3c-7.6-8-11.4-17.7-11.8-28.7
		c0-0.4,0.2-0.9,0.4-1.5c8.7,0,17.4,0,26.3,0c0.3,1.7,0.6,3.3,0.8,5c1.4,9.3,6.5,15.8,15.1,19.2c10.3,4.1,21,4.5,31.6,1.5
		c11.8-3.4,17.2-13.3,14.3-24.9c-1.2-4.9-4-8.9-8.5-11.2c-6.4-3.2-13-5.9-19.6-8.5c-7.7-3-15.6-5.3-23.2-8.4
		c-8.6-3.5-16.4-8.3-22.6-15.3c-13.2-14.6-12.9-37.1,0.5-51.4c8.9-9.5,20.2-14.3,32.9-16.1c10.4-1.4,20.8-1.4,31,1.5
		c11.9,3.3,22,9.3,29.3,19.6c5.3,7.4,7.9,15.7,7.9,25.1c-8.9,0-17.5,0-26.5,0c-0.2-1.2-0.3-2.4-0.5-3.5c-1.8-11.6-8-18.4-19.5-20.9
		c-7.4-1.6-14.9-1.6-22.2,0.6c-8.4,2.5-14.1,7.6-15.3,16.8c-0.8,6.8,1.3,12.2,6.7,16.4c5.1,4,11,6.5,17,8.6
		c7.3,2.5,14.8,4.8,22.1,7.4c8.5,3.1,16.3,7.5,23.6,12.9c19.8,14.7,22.7,53.7-8.6,68c-5,2.3-10.6,3.4-16,5c-2.4,0.7-4.8,1.2-7.1,1.8
		C453.7,757.8,448.1,757.8,442.5,757.8z"/>
	<path class="st0" d="M1430.5,498.2c12.7,0,25,0,37.9,0c0,8.7,0,17.2,0,25.7c11.6-20.5,29.5-29,52.1-28.1
		c22.6,0.9,39.2,11.7,48.9,33.1c1.2-1.9,1.9-3.2,2.7-4.4c12-19.7,29.6-29.1,52.5-28.7c12,0.3,23.4,3.1,33.3,10.4
		c12.2,8.9,19,21.2,21.6,35.9c1.1,6.2,1.8,12.7,1.8,19c0.2,28,0.1,56,0.1,84c0,0.9-0.1,1.8-0.2,3.3c-12.6,0.4-25.1,0.1-38,0.2
		c0-2.2,0-3.8,0-5.5c0-25.1,0-50.1,0-75.2c0-3.7-0.2-7.5-0.7-11.2c-2.4-16.2-11.7-25.4-27.8-27.3c-16.1-1.9-30.5,4.8-36.5,19.8
		c-2.2,5.4-3.2,11.1-3.2,16.9c0,8.4,0,16.8,0,25.2c0,17.1,0,34.2,0,51.3c0,1.7,0,3.4,0,5c-3.4,1.1-31.6,1.4-38.2,0.3
		c0-1.6,0-3.2,0-4.9c0-25.2,0-50.4,0-75.6c0-3.7-0.2-7.5-0.8-11.1c-2.5-16.2-12.8-25.8-29.1-27.1c-6-0.5-11.8,0.2-17.4,2.4
		c-9.8,3.8-16,11-18.9,21c-1.7,5.6-2.1,11.3-2.1,17.1c0,24.4,0,48.9,0,73.3c0,1.7,0,3.3,0,5.3c-12.9,0-25.3,0-37.7,0
		C1430,644.9,1429.6,507.7,1430.5,498.2z"/>
	<path class="st0" d="M1826.5,526.6c0-9.3,0-18.6,0-28.5c12.6-0.3,25-0.1,37.2-0.1c1.1,3.7,1.6,139,0.6,149.8
		c-3.2,1-31.8,1.2-37.8,0.2c0-9.3,0-18.7,0-28.1c-0.2-0.1-0.5-0.2-0.7-0.3c-0.6,1-1.3,1.9-1.8,2.9c-8.2,15.4-21.2,24-38.1,27
		c-13.4,2.3-26.4,0.8-38.8-4.6c-14.2-6.2-24.6-16.5-30.8-30.5c-11.7-26.5-12.2-53.6-0.8-80.1c11.1-25.8,31.9-38,59.8-38.1
		c12.6,0,24.3,3.1,34.5,10.9c5.9,4.5,10.7,10,14,16.6c0.6,1.1,1.2,2.2,1.7,3.3C1826,526.7,1826.3,526.7,1826.5,526.6z M1746.1,573
		c0.2,0,0.4,0.1,0.6,0.1c0.2,2.6,0.3,5.3,0.5,7.9c1.8,17.2,12.3,32.9,33.6,35.4c23.9,2.9,39.7-11.7,44.1-29.5
		c1.8-7.3,1.9-14.7,1.1-22.2c-2.2-18.8-16.6-34.7-38.1-35.3c-18-0.6-33.1,9-38.4,25.8C1747.6,560.9,1747.2,567,1746.1,573z"/>
	<path class="st0" d="M2360.1,526.6c0-9.3,0-18.5,0-28.4c12.5-0.5,24.7-0.1,36.8-0.3c1.1,3.8,1.6,137.4,0.6,149.9
		c-3.3,0.9-27.2,1.2-37.4,0.4c-0.2-9.4,0-18.9-0.8-28.6c-0.4,0.7-0.9,1.4-1.3,2.2c-7.6,14.8-19.8,23.9-36,27.1
		c-20.1,4-38.7,0.3-55.1-12.5c-7.5-5.9-13.2-13.3-17-21.9c-11.6-26.4-12.2-53.2-1.2-79.8c10.6-25.7,33.1-39.4,60.9-38.7
		c13.7,0.3,26.1,4.1,36.6,13.1C2352,514,2356.1,520,2360.1,526.6z M2280,573.1c0.1,0,0.2,0,0.4,0.1c0.2,2.6,0.2,5.3,0.5,7.9
		c2,18.5,13.5,32.8,33.2,35.3c23.3,3,39.7-10.7,44.4-29c2-7.6,2.1-15.3,1.1-23.1c-2.2-17.8-15.9-34.3-38.5-34.8
		c-19.1-0.4-34.2,10.4-38.8,28.9C2281,563.1,2280.7,568.2,2280,573.1z"/>
	<path class="st0" d="M1289.8,572.1c-0.2,12.8-1.8,24.3-6.6,35.2c-7.5,16.9-19.7,29.4-36.9,36.5c-22.1,9.1-44.7,9.5-66.8,0.4
		c-25.3-10.4-39.3-30.1-43.5-56.8c-2.2-14.2-1.5-28.3,3.2-41.9c9.3-27.2,28.8-42.9,56.8-48c16.5-3,32.9-1.9,48.6,4.5
		c24.7,10,38.6,28.8,43.6,54.6c0.4,2,0.7,4,0.9,6C1289.5,566,1289.7,569.6,1289.8,572.1z M1174.3,573.1c0,2.3-0.2,4.7,0,7
		c1.6,21.5,15.8,35.9,36.5,37.1c16.1,1,31-8.6,36.6-23.7c4.2-11.3,4.4-22.8,1.8-34.5c-3.8-17.1-15.6-27.7-33-29.6
		c-17.4-1.9-33.1,8-38.8,23C1175,559.1,1174,566,1174.3,573.1z"/>
	<path class="st0" d="M864.6,498.2c12.6,0,25,0,37.9,0c0,9.1,0,18.1,0,27c0.3,0.1,0.6,0.1,0.8,0.2c0.5-0.8,1.2-1.6,1.6-2.4
		c8.3-15.5,21.7-23.7,38.5-26.4c12.5-2.1,24.9-1,36.5,4.6c14.5,7,23.3,18.8,27.9,33.9c2.7,8.9,3.5,18,3.5,27.2
		c0.1,27.4,0,54.8,0,82.2c0,1.2-0.1,2.4-0.2,3.9c-12.6,0-25,0-38,0c0-1.8,0-3.4,0-5.1c0-25.1,0-50.1,0-75.2c0-3.7-0.2-7.5-0.7-11.2
		c-2.6-18.8-15.7-29.8-34.7-29.3c-19.2,0.5-32.6,12.9-34.5,32.4c-0.4,4.2-0.6,8.4-0.6,12.6c-0.1,23.3,0,46.7,0,70c0,1.8,0,3.7,0,5.7
		c-12.9,0-25.3,0-37.7,0C864,645,863.7,506.3,864.6,498.2z"/>
	<path class="st0" d="M2221.3,554.5c-13.5,0-26.7,0-39.9,0c-0.5-1.5-0.9-2.9-1.4-4.2c-4.6-12.9-13.9-20-27.4-21.2
		c-19.6-1.8-34.4,9.1-38.7,28.7c-2.5,11.2-2.4,22.6,0.8,33.7c6.6,22.9,27.8,30.6,47.1,23.7c8.9-3.2,14.8-9.6,18-18.4
		c0.6-1.6,1.1-3.2,1.6-4.9c13.3,0,26.5,0,40.1,0c-0.7,6.9-2.8,13.2-5.7,19.2c-9.8,20.5-26.1,32.8-48.2,37.5
		c-14.6,3.1-29.1,2.8-43.4-1.5c-23.7-7.1-39.5-22.6-46.8-46.1c-5.9-19-5.8-38.4,0.6-57.4c8.9-26.3,27.8-41.4,54.8-46.2
		c15.7-2.8,31.4-2.1,46.4,3.9c23.4,9.4,37.1,26.9,42.1,51.4C2221.3,553.1,2221.3,553.6,2221.3,554.5z"/>
	<path class="st0" d="M1119.7,438.6c0,11.1,0,21.7,0,32.8c-3.5,0.2-6.8,0.2-10.2,0.6c-2.5,0.2-4.9,0.7-7.3,1.4
		c-4.4,1.3-7.7,4.1-9.7,8.2c-2.5,5-3.3,10.3-3.1,16.4c10.1,0,20,0,30.2,0c0,10.9,0,21.2,0,32.2c-10,0-19.8,0-30.2,0
		c0,39.7,0,78.8,0,118.2c-12.9,0-25.3,0-38.4,0c-0.3-5.4-0.1-10.9-0.1-16.4c0-5.6,0-11.2,0-16.8s0-11.2,0-16.8c0-5.8,0-11.5,0-17.3
		c0-5.6,0-11.2,0-16.8s0-11.2,0-16.8c0-5.6,0-11.1,0-17.2c-6.7,0-12.8,0-19.2,0c0-10.9,0-21.2,0-32.1c6.4,0,12.5,0,18.8,0
		c0.5-5.3,0.7-10.1,1.3-14.8c2.7-22.4,17.3-38.2,39.5-42.8C1100.4,438.5,1109.7,438,1119.7,438.6z"/>
	<path class="st0" d="M69.1,754.9c0-51.7,0-103.1,0-154.8c1.2-0.1,2.3-0.4,3.3-0.4c15.3,0,30.5-0.1,45.8,0.1
		c11.9,0.1,23.1,3.2,33.4,9.2c14.6,8.4,24.3,21,29.1,36.9c6.3,20.9,6.6,42.2,0,63c-8.2,26-26.8,40.8-53.6,45.2c-4.4,0.7-9,1-13.5,1
		c-13.4,0.1-26.8,0.1-40.2,0C72.1,755.2,70.7,755,69.1,754.9z M96.2,621.2c0,38,0,75,0,112.1c8.1,0,15.9,0.6,23.6-0.1
		c15.9-1.4,27.3-9.7,33.4-24.6c1-2.4,1.8-5,2.4-7.5c3.1-13.2,2.8-26.6,1.3-39.9c-0.6-5.8-2.3-11.6-4.6-17
		c-5.4-12.7-15.3-20.3-29.1-21.8C114.4,621.4,105.5,621.5,96.2,621.2z"/>
	<path class="st0" d="M1979.6,497.9c0,11.2,0,21.4,0,32.2c-11.1,0-22.1,0-33.3,0c-0.1,2-0.3,3.3-0.3,4.7c0,20.4,0,40.8,0,61.1
		c0,3.1,0.4,6.2,1,9.2c1.2,5.4,4.8,8.8,10.2,9.6c4.7,0.7,9.6,0.7,14.4,0.9c2.5,0.1,5,0,7.4,0c1.1,3.5,1.5,21.7,0.7,32.1
		c-0.2,0.2-0.5,0.6-0.7,0.6c-12.1,0.1-24.3,1-36.3-1.6c-19.7-4.2-31-16-33.9-36c-0.8-5.7-1.1-11.5-1.1-17.2
		c-0.1-19.3-0.1-38.6-0.1-57.9c0-1.7,0-3.3,0-5.5c-7.1,0-13.7,0-20.2,0c-1.1-3.8-1.3-27.3-0.2-32.3c3.3,0,6.7,0,10.1,0
		c3.2,0,6.5,0,10.2,0c0-12.5,0-24.5,0-36.4c3.8-1.1,32.4-1.3,38.4-0.4c0,12,0,24.1,0,36.7C1957.4,497.9,1968.3,497.9,1979.6,497.9z"
		/>
	<path class="st0" d="M238.9,664.4c21.6,0,42.4,0,64,0c0.1,7.1,0.1,14-0.1,21.4c-21.4,0-42.4,0-63.6,0c0,16.1,0,31.7,0,47.7
		c24.8,0,49.3,0,74.1,0c0,7.3,0,14.2,0,21.4c-33.8,0-67.3,0-101.2,0c0-51.6,0-103,0-154.4c3.5-0.9,94.8-1.2,100.4-0.2
		c0,6.9,0,13.8,0,21.2c-12.3,0-24.4,0-36.5,0c-12.1,0-24.3,0-37,0C238.7,635.8,239,649.8,238.9,664.4z"/>
	<path class="st0" d="M1317.4,498.3c12.8,0,25.2,0,38,0c0,8.9,0,17.6,0,26.2c0.3,0.1,0.5,0.2,0.8,0.3c2.6-3.1,4.9-6.5,7.7-9.4
		c2.9-3,6-5.9,9.4-8.4c3.2-2.4,6.8-4.5,10.4-6.1c3.8-1.7,7.9-2.9,11.9-3.8c4.1-0.9,8.3-1.2,12.3-1.7c1.1,3.8,1.3,35.5,0.3,41.3
		c-2.3,0-4.8-0.1-7.2,0c-5.7,0.4-11.6,0.4-17.2,1.5c-17.6,3.5-27.1,14.8-28.2,32.7c-0.2,2.8-0.1,5.6-0.1,8.4c0,21.2,0,42.3,0,63.5
		c0,1.7,0,3.4,0,5.4c-12.8,0-25.3,0-38.1,0C1317.4,598.3,1317.4,548.5,1317.4,498.3z"/>
	<path class="st0" d="M1808.3,266.4c0-11.3,0-22.5,0-34c5.9,0,11.3,0,17,0c0,45.5,0,90.8,0,136.2c-3.1,1-11,1.1-16.9,0.3
		c0-11.2,0-22.5,0-33.7c-0.3-0.1-0.6-0.1-0.9-0.2c-0.4,0.7-0.8,1.4-1.2,2.2c-9.6,21.4-26.5,32.3-49.6,33.9
		c-7.5,0.5-14.9-0.2-22.2-2.2c-20.3-5.5-34.2-18.3-41.2-37.9c-7.5-20.8-7.4-41.9,0.8-62.5c8.9-22.1,25.7-34.4,49.4-37.4
		c9.1-1.2,18-0.7,26.8,1.8c16.2,4.6,27.8,14.7,35.1,29.8c0.3,0.7,0.6,1.4,0.9,2.1c0.3,0.6,0.6,1.1,0.8,1.6
		C1807.6,266.4,1807.9,266.4,1808.3,266.4z M1808.5,300.7c-0.5-4.6-0.7-9.3-1.7-13.9c-3.6-16.7-12.6-29.2-28.4-36.4
		c-8.3-3.7-17-4.7-26-4.2c-22.4,1.2-39.8,15.9-44.6,37.7c-2.5,11.4-2.7,22.9,0.2,34.2c4.3,17.4,14.8,29.5,32.2,35
		c6.6,2.1,13.4,2.6,20.3,2.2c17.4-1.1,30.8-8.9,39.9-23.8C1806.2,322.1,1808.3,311.7,1808.5,300.7z"/>
	<path class="st0" d="M648.2,116.8c3.8,0,7.3,0,11,0c0,198.1,0,395.9,0,594.2c-2.4,0-4.6,0-6.7,0c-1.4,0-2.7-0.1-4.3-0.2
		C648.2,512.7,648.2,314.8,648.2,116.8z"/>
	<path class="st0" d="M1120.2,300.4c0.5-14,3.1-27.2,10.5-39.3c10.7-17.5,26.7-26.8,46.7-29.9c11.4-1.7,22.7-1.1,33.7,2.2
		c24.5,7.5,38.9,24.3,44.3,48.9c3.2,14.4,2.9,28.8-1.6,42.9c-8.3,25.9-26.5,40.6-53.2,44.9c-11.2,1.8-22.4,1.1-33.3-2.3
		c-25.3-7.9-40-25.3-45.2-50.9C1120.9,311.6,1120.8,306,1120.2,300.4z M1138.3,300.6c0.1,2.5,0.2,5,0.4,7.5
		c1.5,22.1,15.1,43.1,42.7,46.8c24.7,3.3,48.9-8.8,56-36.6c2.2-8.7,2.3-17.5,1.5-26.4c-2.4-26.8-21.7-45.2-48.6-46
		c-22.4-0.7-41,11.6-48.4,31.8C1139.3,285.1,1138.4,292.8,1138.3,300.6z"/>
	<path class="st0" d="M1366.4,300.5c0.3-14,3.1-27.2,10.4-39.3c10.7-17.6,26.7-26.9,46.7-29.9c11.4-1.8,22.7-1.1,33.7,2.2
		c23.9,7.3,38.3,23.6,44,47.5c3.4,14.1,3,28.4-0.7,42.5c-6.7,25.2-27.8,43.5-53.7,46.8c-12.1,1.5-24,1-35.5-3
		c-24.8-8.6-38.8-26.5-43.4-52C1366.9,310.4,1366.8,305.4,1366.4,300.5z M1384.7,300.5c0,2.2-0.1,4.4,0,6.5
		c1.5,26,17.6,44.2,42.7,47.8c26.2,3.8,50.7-10.3,56.6-38.7c1.8-8.8,1.9-17.6,0.7-26.4c-3.5-26-22-42.9-48.2-43.8
		c-21.9-0.7-40.1,10.8-47.9,30.4C1385.6,284,1384.4,292.2,1384.7,300.5z"/>
	<path class="st0" d="M838.9,232.4c5.8,0,11.3,0,17.4,0c0,1.9,0,3.6,0,5.2c0,23.6,0,47.3,0,70.9c0,6.5,0.3,13,2,19.4
		c4.4,16,16.2,26.3,32.7,28.5c7.5,1,15,0.7,22.2-1.5c14.3-4.3,23.3-14.1,27.3-28.2c1.7-6.1,2.7-12.5,2.8-18.8
		c0.3-23.3,0.2-46.7,0.2-70c0-1.7,0-3.4,0-5.4c5.8,0,11.4,0,16.9,0c0.9,3.2,1.2,130.8,0.1,136.8c-2.6,0-5.4,0-8.2,0
		c-2.8,0-5.5,0-8.8,0c0-10.5,0-20.5,0-30.5c-0.3-0.1-0.6-0.1-0.9-0.2c-0.5,1-1,2.1-1.5,3.1c-8,18.1-22.4,27.3-41.6,29.6
		c-10.5,1.3-20.9,0.1-30.6-4.2c-15.7-6.9-24.9-19.3-28.3-35.8c-1.3-6.2-1.9-12.6-1.9-19c-0.2-25.4-0.1-50.7-0.1-76.1
		C838.7,235,838.9,233.8,838.9,232.4z"/>
	<path class="st0" d="M1657.4,369.1c-6,0-11.4,0-17.4,0c0-2,0-3.8,0-5.6c0-23.3,0-46.7,0-70c0-7-0.3-14-2.3-20.8
		c-4.6-15.9-16.9-26-33.3-27.7c-6.9-0.7-13.7-0.5-20.4,1.4c-16.5,4.7-25.8,16.1-29.3,32.5c-1.3,6.2-1.8,12.6-1.9,19
		c-0.2,21.9-0.1,43.9-0.1,65.8c0,1.7,0,3.4,0,5.4c-6,0-11.6,0-17.5,0c0-45.5,0-90.9,0-136.5c5.7,0,11.2,0,17.4,0
		c0.3,4.9,0.1,10,0.1,15.1c0,5,0,9.9,0,15.8c0.9-1.3,1.5-1.8,1.8-2.5c9.2-21.5,26.5-30.5,48.8-31c13.1-0.3,25.3,3.3,35.5,11.9
		c10.6,8.9,15.6,20.7,17.4,34.1c0.7,4.9,0.9,9.9,1,14.9c0.1,24.7,0,49.5,0,74.2C1657.4,366.1,1657.4,367.3,1657.4,369.1z"/>
	<path class="st0" d="M791.4,498.2c12.6,0,25,0,37.7,0c0,50,0,99.8,0,150.2c-12.4,0.2-24.9,0-37.7,0.1
		C791.4,598.4,791.4,548.6,791.4,498.2z"/>
	<path class="st0" d="M2008,498.2c12.6,0,25,0,37.7,0c0,50,0,99.8,0,149.6c-3.2,0.9-29.9,1.2-37.7,0.4
		C2008,598.4,2008,548.6,2008,498.2z"/>
	<path class="st0" d="M993.9,327.6c5.9,0,11.1,0,16.6,0c0.3,0.9,0.6,1.7,0.8,2.6c3.5,15,13.7,24.6,29.1,27.1
		c5.9,1,11.7,1.1,17.7,0.1c14.6-2.4,23.2-15.9,19.2-30.2c-1.7-6-5.6-10.1-10.9-12.7c-4.9-2.4-10.1-4.1-15.3-5.6
		c-9.4-2.7-18.9-5-28.4-7.7c-7.9-2.3-15.1-5.9-20.4-12.4c-1.9-2.4-3.8-5-4.8-7.9c-4.9-14.1-3.1-34.7,17.7-45
		c9.8-4.9,20.2-5.9,30.9-5.2c7.5,0.5,14.8,2,21.6,5.5c14.5,7.5,22.4,19.7,25.3,35.5c0.1,0.5,0.1,0.9,0.2,1.4c0,0.3-0.1,0.6-0.2,1
		c-5.2,0-10.5,0-15.8,0c-0.3-0.6-0.6-1.2-0.7-1.7c-3.6-17.7-15.3-27.8-33.4-28.7c-5.8-0.3-11.5,0.3-16.9,2.6
		c-11.3,4.7-16.8,16.1-13.6,27.9c1,3.6,3.1,6.4,5.8,8.8c4.1,3.6,8.9,5.7,14,7.1c9.3,2.6,18.6,4.9,27.9,7.5c3.7,1,7.5,2.2,11.1,3.6
		c13.5,5.3,22.4,14.4,23.4,29.6c1,15.9-5.7,27.6-19.8,35.1c-5.6,3-11.6,4.5-17.9,5c-14.2,1.1-28-0.6-40.5-8.1
		C1003.4,354.8,996.1,343.1,993.9,327.6z"/>
	<path class="st0" d="M1312.2,232.1c11.8,0,22.9,0,34.3,0c0,5.4,0,10.3,0,15.7c-11.4,0-22.5,0-34.1,0c0,40.7,0,80.9,0,121.3
		c-6,0-11.4,0-17.4,0c-0.5-13.3-0.2-26.5-0.2-39.8c-0.1-13.5,0-27.1,0-40.6c0-13.4,0-26.7,0-40.6c-6.7-0.5-13.2,0-20.2-0.4
		c-0.4-5-0.2-9.9-0.2-15.4c6.7,0,13.3,0,20.4,0c0-3.2-0.2-5.8,0-8.4c0.5-4.9,0.7-10,1.9-14.7c3.5-14,12.4-23.2,26.5-26.5
		c6.5-1.5,13.2-1.8,19.8-2.5c1-0.1,2.1,0.2,3.4,0.4c0,5.1,0,10,0,14.9c-4,0.4-7.7,0.7-11.4,1.1c-13.2,1.6-19.8,7.7-22,20.9
		C1312.3,222.1,1312.5,226.9,1312.2,232.1z"/>
	<path class="st0" d="M337.5,600c8.9,0,17.4,0,25.9,0c0.9,3.4,1.2,148.4,0.3,154.9c-8.6,0-17.2,0-26.2,0
		C337.5,703.4,337.5,652,337.5,600z"/>
	<path class="st0" d="M531.6,600.1c9,0,17.6,0,26.4,0c0,51.7,0,103.1,0,154.8c-8.9,0-17.5,0-26.4,0
		C531.6,703.3,531.6,651.9,531.6,600.1z"/>
	<path class="st0" d="M787.1,183.7c5.7,0,11.1,0,16.5,0c1,3.3,1.4,177.6,0.4,185.3c-5.5,0-11,0-16.6,0
		C786.4,365.9,786,191.3,787.1,183.7z"/>
	<path class="st0" d="M1765.1,486.4c0-9.1,0-17.5,0-26.1c20.6-10.7,41.2-21.5,62.3-32.4c0,10.2,0,19.6,0,29.4
		C1806.7,466.8,1786.1,476.5,1765.1,486.4z"/>
	<path class="st0" d="M2027,475.2c-5.7,0-11.1-1.1-15.8-4.7c-12.1-9.1-10.2-27.9,3.5-34.3c6.8-3.2,13.9-3.4,20.9-1.4
		c10,2.9,15.9,11.5,15,21.4c-0.9,9.7-8.4,17.3-18.5,18.6C2030.5,475.1,2028.7,475.1,2027,475.2z"/>
	<path class="st0" d="M811.2,475.2c-5.5,0-9.9-0.6-14-2.9c-7.3-4.1-11-10.4-10.6-18.8c0.4-8.5,4.8-14.6,12.8-17.8
		c6.4-2.6,13.1-2.7,19.6-0.8c10,3,15.7,11.4,14.9,21.5c-0.8,9.6-8.5,17.3-18.6,18.5C813.7,475.1,812,475.1,811.2,475.2z"/>
	<path class="st0" d="M1231.9,176.2c0,4.9,0.1,9-0.1,13.1c0,0.9-0.9,2-1.7,2.5c-16.2,9.6-32.4,19.1-48.6,28.6
		c-0.1,0.1-0.3,0-1.1,0.1c0-3.7-0.2-7.4,0.1-11c0.1-1.1,1.5-2.2,2.5-3c3.7-2.5,7.6-4.8,11.4-7.2c10.9-6.8,21.9-13.7,32.8-20.5
		C1228.5,178,1229.8,177.4,1231.9,176.2z"/>
</g>
</svg>
